<?xml version="1.0" encoding="utf-8"?>
<!-- Generator: Adobe Illustrator 23.0.1, SVG Export Plug-In . SVG Version: 6.00 Build 0)  -->
<svg version="1.1" id="Layer_1" xmlns="http://www.w3.org/2000/svg" xmlns:xlink="http://www.w3.org/1999/xlink" x="0px" y="0px"
	 viewBox="0 0 5160.4 1162.7" style="enable-background:new 0 0 5160.4 1162.7;" xml:space="preserve">
<style type="text/css">
	.st0{fill:none;}
	.st1{fill:#AD0F0A;}
	.st2{fill:#FFFFFF;}
</style>
<g>
	<path class="st0" d="M1686,460.5c-39.9,0-75.7,30.4-85.3,72.5v0.2c-1.9,8.5-2.8,17.1-2.8,25.8v59.5h0.2v11.3
		c-0.1,10.6,1,21.1,3.1,31.5c10,40.3,43.3,67.2,83.1,67.2c61.3,0,99.7-51.6,99.7-134.4c0-39.7-8.8-73.2-25.5-96.9
		C1741,472.8,1716.8,460.5,1686,460.5z"/>
	<path class="st0" d="M3965.1,689.1c0,45,36.6,49.9,52.2,49.9c32.4,0,62.9-21.5,72.5-51c1.9-8,2.8-16.2,2.8-24.4V619
		C4007.9,621,3965.1,644.5,3965.1,689.1z"/>
	<path class="st0" d="M2158.8,328.4l76.2,42.3c-32.4,34.1-51.8,76.3-55.2,121.9l-98.3-3.4c-7.1,66.9,11.1,132.7,45.3,190.2l96.9-38
		c33.2,48.8,81.9,88.5,137.8,115.9l-55.9,86.1c72.2,37.7,154.7,58.7,237.2,58.6l-6.8-102.9c58.7,0.8,119.7-12.2,170.4-42.2
		l60.9,81.6c53-35.2,91.2-83.3,111.6-137.7l-81.7-42.6c17.4-39.5,21.3-83.7,11-125.6l76.8-0.3c-14.5-53.9-43.1-103.2-80.2-145.2
		l-60.9,26.9c-31.7-35.1-71.7-64-116.3-85.1l30.7-51.4c-53.5-26.2-111.2-43-170.4-49.7v62.6c-47.1-4.2-94.6-0.3-139.5,13.4
		l-44.2-59.9C2244.7,261.3,2195.9,291,2158.8,328.4z M2354.6,408.7c-6.8-46.2,37.5-83.9,98.9-83.9s116.3,37.5,123.1,83.9
		c0.9,6.9,0.8,14-0.3,20.9c13.8-4.2,28.2-6.1,42.6-5.9c66.9,0.9,127,44,134.3,96.1s-40.9,93.6-107.7,92.7
		c-39.4-0.6-76.5-16.1-102-39.2c51.4,84.8,118.3,115.4,198.2,99.2l12.2,18.8l-329.4,77.1l-1.4-21.5c91-22.2,129.5-75.9,100.9-159
		c-16.7,37.7-69.4,73.7-121.4,75.4c-70.3,2.3-133.5-41.3-141.2-97.2s43-103.4,113.2-105.8h11C2368.6,446.1,2357.3,428,2354.6,408.7
		L2354.6,408.7z"/>
	<path class="st1" d="M314.7,458.2c34.5,0,63,5.1,85.3,14.8l12.7,5.7L443,336.2l-9.1-3.4c-34.6-13-81.9-20.9-126.5-20.9
		c-93.9,0-172.9,29-228,84c-51.2,51-79.3,122.8-79.3,202.2c0,82.5,26.9,152,77.6,201s122.2,74.6,207.3,74.6c59,0,116-9.7,148.6-25.5
		l7.6-3.6l-22.6-140.9l-13.4,5.9c-24.9,10.7-53.5,16.1-87.4,16.1c-36.6,0-69.4-12.1-92.2-34.1c-24.9-23.8-38-58.2-38-99.7
		c-0.6-39.4,12.2-74.2,35.8-98.1C246.1,470.4,277.6,458.2,314.7,458.2z"/>
	<path class="st1" d="M827.2,312.2c-30.8,0.1-61.1,7.4-88.5,21.3c-18.3,9.1-34.9,21.2-49.1,35.8v-279H506.4V863h183.1V545.5
		c0-13,1.5-23.9,4.3-30.3l0.2-0.3c4.5-11.7,23-49.9,69.7-49.9c25,0,43,8.7,55,26.7c11.4,17.3,17.3,43,17.3,76.3v295.6h183.1V550.9
		c0-77.4-18.4-137.8-54.7-179.5C931,332.6,883.6,312.2,827.2,312.2z"/>
	<rect x="1125.4" y="323.9" class="st1" width="183.1" height="539.1"/>
	<path class="st1" d="M1218.1,99.7c-56.1,0-96.9,38.5-96.9,91.5s39.7,91.5,94.7,91.5c28.9,0,53.5-9.3,71.4-26.6
		c17.1-16.5,26.6-39.7,26.6-64.7v-0.2C1312.8,137.3,1273.2,99.7,1218.1,99.7z"/>
	<path class="st1" d="M1927.5,422c-7.6-12.7-16.4-24.8-26.1-36c-41.4-47.4-97.5-73.7-158.1-73.7c-68.6,0-125.5,23.5-165.8,68.4
		l-5.9-56.9h-161.5l0.6,11.7c2,50.4,4.2,106,4.2,172.7v564.1h183.2V831.7c30,27.2,75.6,43.1,125,43.1c85.3,0,175.2-46.7,218.9-146.8
		C1892.9,613.7,1893.1,509.5,1927.5,422z M1684,728.7c-39.7,0-73.1-26.9-83.1-67.2c-2.1-10.4-3.1-20.9-3.1-31.5v-11.3h-0.2v-59.5
		c0-8.7,0.9-17.3,2.8-25.8v-0.2c9.6-42,45.4-72.5,85.3-72.5c30.7,0,55,12.4,72.2,36.8c16.5,23.5,25.5,57,25.5,96.9
		C1783.7,677.1,1745.4,728.7,1684,728.7z"/>
	<path class="st2" d="M3207.7,525.4c-65.4-23-75.9-33.5-75.9-49.7c0-9.1,4.9-30,49.9-30c43.3,0,87.4,17.8,106.6,28.3l12.8,7
		l33.2-134l-8-4c-40.2-19.9-96.3-31.8-149.9-31.8c-118,0-203.9,61-219.2,151.6c30.3,48.2,51,99,61.8,150.3
		c22.4,16.8,52.2,32.4,91.5,45.6c61,20.7,67.4,31.1,67.4,49.6c0,8.5,0,30.9-57.5,30.9c-29,0-64.3-7.9-93.2-18.4
		c-2.6,46.7-14,92.5-33.7,134.9c37.9,12.4,82.2,19.2,127,19.2c73.1,0,133.2-17.3,174-50.1c39.4-31.7,60.3-76.3,60.3-129.5
		c-0.6-41.3-12.4-74.6-36-102.3C3294.9,565.2,3258.4,543,3207.7,525.4z"/>
	<path class="st2" d="M3632.3,180.8l-179.8,49.6V324h-68.8v140.8h68.8V665c0,75.1,15.6,127.9,47.6,161.3
		c30.1,30.3,77.4,47.9,129.5,47.9c41.3,0,83.4-5.7,107.4-14.5l7.6-2.6l-1.4-143.2l-13.4,2.8c-13.1,2.6-22.9,4-45.3,4
		c-33.2,0-52.2-13-52.2-79.7V465.3h115.3V324.2h-115.5L3632.3,180.8z"/>
	<path class="st2" d="M4270.8,738.3L4270.8,738.3l0.2-191.9c0-107.4-41.3-235.5-237.5-235.5c-111.9,0-186.3,36.8-206.3,48l-7.7,4.3
		l36.2,126.5l12.7-8c29.5-18.7,83.3-37.5,136.6-37.5c52.5,0,80.2,17.3,82.5,51.6c-90.5,1.4-162.7,18.1-214.6,50.1
		c-58.7,36.2-88.5,89.5-88.5,158.8c0,44.8,16.8,86.8,47.4,118c33.2,33.8,78.2,51.8,130.7,51.8c57.8,0,108.2-18.8,143.7-53.5
		l7.6,41.9H4282l-3.1-13.8C4273.8,827.1,4271.3,789,4270.8,738.3z M4092.9,663.7c0,8.2-0.9,16.4-2.8,24.4c-9.7,29.5-40.2,51-72.5,51
		c-15.6,0-52.2-4.9-52.2-49.9c0-44.7,43-68.1,127.8-70.1v44.5L4092.9,663.7L4092.9,663.7z"/>
	<path class="st2" d="M4670.7,311.2c-43.6,0-100.7,22.1-134.9,81.6l-4.6-68.9h-159.9l0.8,12.1c3.1,43,4.2,91.9,4.2,169.3v357.8
		h183.1V590c-0.1-11.3,1-22.6,3.1-33.7c9.7-45.4,47-72.3,98.9-72.3c13.9,0.1,27.8,1.4,41.4,4l13,2V316.3l-9.3-1.7
		C4694.5,312.3,4682.7,311.1,4670.7,311.2z"/>
	<path class="st2" d="M5124.5,593.2c-23.9-28.1-60.3-50.1-111.1-67.7c-65.4-23-75.9-33.5-75.9-49.7c0-9.1,4.9-30,49.9-30
		c43.3,0,87.4,17.8,106.6,28.3l12.8,7l33.2-134l-8-4c-40.2-19.9-96.3-31.8-149.9-31.8c-130.6,0-221.7,74.6-221.7,181.2
		c-0.8,51.8,25.6,122.8,155.6,166.1c61,20.7,67.4,31.1,67.4,49.6c0,8.5,0,30.9-57.5,30.9c-44.7,0-103.7-18.8-132.6-36.3l-13-7.9
		L4746,832.6l7.7,4.2c45.3,24.3,108,38.2,172.3,38.2c73.1,0,133.2-17.3,174-50.1c39.4-31.7,60.3-76.3,60.3-129.5
		C5160,654.2,5148.3,620.7,5124.5,593.2z"/>
	<path class="st1" d="M2041.1,669.7c91.3,210.4,360.9,340.7,601.6,291.4c240.7-49.3,362.2-259.9,270.7-470
		c-91.3-210.4-360.9-340.7-601.6-291.4C2070.9,249.3,1949.6,459.6,2041.1,669.7z M2487.6,290.1v-62.6
		c59.2,6.7,116.9,23.5,170.4,49.7l-30.7,51.4c44.7,21.2,84.8,50.1,116.3,85.1l60.7-26.7c37.1,42,65.7,91.3,80.2,145.2l-76.8,0.3
		c10.3,41.9,6.5,86.1-11,125.6l81.7,42.6c-20.4,54.4-58.6,102.4-111.6,137.7l-60.7-81.4c-50.7,30-111.7,43-170.4,42.2l6.8,102.9
		c-82.5,0.2-165-20.9-237.2-58.6l55.9-86.1c-55.9-27.3-104.8-67.1-137.8-115.9l-96.9,38c-34.1-57.5-52.4-123.4-45.3-190.2l98.3,3.4
		c3.4-45.6,22.9-87.8,55.2-121.9l-76.2-42.3c37.1-37.5,85.9-67.1,144.8-85l44.2,59.9C2392.9,289.6,2440.4,285.9,2487.6,290.1z"/>
	<path class="st2" d="M2261.2,566.2c7.7,55.9,71.1,99.5,141.2,97.2c52.2-1.7,104.8-37.7,121.4-75.4c28.4,83.1-10,136.7-100.9,159
		l1.4,21.5l329.4-77.1l-12.2-18.8c-79.9,16.2-146.8-14.5-198.1-99.2c25.5,23.2,62.6,38.6,102,39.2c66.9,0.9,114.9-40.5,107.7-92.7
		c-7.4-51.9-67.4-95.2-134.3-96.1c-14.4-0.3-28.8,1.7-42.6,5.9c1.2-6.9,1.3-13.9,0.3-20.9c-6.8-46.4-62-83.9-123.1-83.9
		s-105.7,37.7-98.9,83.9c2.8,19.5,14.1,37.5,30.9,51.6h-11C2304.2,462.8,2253.4,510.1,2261.2,566.2z"/>
	<path class="st2" d="M2988.4,585c-6.2-29-15.5-57.3-27.7-84.4c-1.9-4.2-4-8.3-6-12.4c-31.8-62.4-80-121.1-144.5-170.9
		c255.1,225.4,222,611.5-145.8,693.7c-257.1,57.5-551.3-83.9-657.1-315.2c-151.4-331.1,152.5-571,466.1-531.2
		c-37.2-6.1-75-8.3-112.6-6.6c-198.8,13.1-373.9,129.6-414.5,302.5c-14.8,63-11.9,133.5,14.1,209.5c5.4,15.6,11.9,31.7,19.2,47.9
		c111.6,242.4,418.5,394.6,687.4,324.6c140.3-36.6,235.5-111.2,286.1-202.9c22.7-40.8,37-85.8,42-132.3
		C2999.6,666.6,2997.4,625.2,2988.4,585z"/>
</g>
</svg>
